<svg width="1120" height="520" viewBox="0 0 1120 520" xmlns="http://www.w3.org/2000/svg" role="img" aria-label="Juris Draft architecture diagram">
  <rect width="1120" height="520" rx="24" fill="#f6f8fa"/>
  <text x="60" y="72" font-family="Inter, Arial, sans-serif" font-size="34" font-weight="700" fill="#0f172a">Juris Draft Architecture</text>
  <g font-family="Inter, Arial, sans-serif" font-size="22" fill="#0f172a">
    <rect x="70" y="130" width="250" height="110" rx="18" fill="#ffffff" stroke="#d0d7de"/>
    <text x="110" y="175" font-weight="700">JSON facts</text>
    <text x="110" y="208" font-size="17" fill="#475569">matter inputs</text>

    <rect x="435" y="80" width="250" height="100" rx="18" fill="#ffffff" stroke="#d0d7de"/>
    <text x="475" y="123" font-weight="700">Jurisdiction</text>
    <text x="475" y="154" font-size="17" fill="#475569">profiles/*.yml</text>

    <rect x="435" y="210" width="250" height="100" rx="18" fill="#ffffff" stroke="#d0d7de"/>
    <text x="475" y="253" font-weight="700">Tone</text>
    <text x="475" y="284" font-size="17" fill="#475569">voice controls</text>

    <rect x="435" y="340" width="250" height="100" rx="18" fill="#ffffff" stroke="#d0d7de"/>
    <text x="475" y="383" font-weight="700">Recipe</text>
    <text x="475" y="414" font-size="17" fill="#475569">draft structure</text>

    <rect x="805" y="190" width="250" height="130" rx="18" fill="#0f172a"/>
    <text x="850" y="242" font-weight="700" fill="#ffffff">Draft packet</text>
    <text x="850" y="278" font-size="17" fill="#cbd5e1">Markdown + warnings</text>
  </g>
  <g stroke="#64748b" stroke-width="3" fill="none" marker-end="url(#arrow)">
    <path d="M320 185 C360 185 390 185 430 185"/>
    <path d="M685 130 C750 140 780 190 805 220"/>
    <path d="M685 260 C735 260 765 260 805 260"/>
    <path d="M685 390 C750 375 780 320 805 292"/>
  </g>
  <defs><marker id="arrow" viewBox="0 0 10 10" refX="8" refY="5" markerWidth="6" markerHeight="6" orient="auto-start-reverse"><path d="M 0 0 L 10 5 L 0 10 z" fill="#64748b"/></marker></defs>
</svg>
